<?xml version="1.0" encoding="UTF-8" standalone="no" ?>
<!DOCTYPE svg PUBLIC "-//W3C//DTD SVG 1.1//EN" "http://www.w3.org/Graphics/SVG/1.1/DTD/svg11.dtd">
<svg xmlns="http://www.w3.org/2000/svg" xmlns:xlink="http://www.w3.org/1999/xlink" version="1.1" width="572.738359375" height="202.46336" xml:space="preserve">
<desc>Created with Fabric.js 1.6.0-rc.1</desc>
<defs></defs>
  <g transform="translate(363.9 102.1) scale(1.74 1.74)">
   <text font-family="FFF Tusj" font-size="40" font-weight="normal" style="stroke: none; stroke-width: 1; stroke-dasharray: none; stroke-linecap: butt; stroke-linejoin: miter; stroke-miterlimit: 10; fill: #000000; fill-rule: nonzero; opacity: 1;" ><tspan x="-114.78" y="-17.23" style="stroke: none; stroke-width: 0; stroke-dasharray: none; stroke-linecap: butt; stroke-linejoin: miter; stroke-miterlimit: 4; fill: #000000; fill-rule: ; opacity: 1;">S</tspan><tspan x="-90.6" y="-17.23" style="stroke: none; stroke-width: 0; stroke-dasharray: none; stroke-linecap: butt; stroke-linejoin: miter; stroke-miterlimit: 4; fill: #000000; fill-rule: ; opacity: 1;">t</tspan><tspan x="-74.7" y="-17.23" style="stroke: none; stroke-width: 0; stroke-dasharray: none; stroke-linecap: butt; stroke-linejoin: miter; stroke-miterlimit: 4; fill: #000000; fill-rule: ; opacity: 1;">o</tspan><tspan x="-52.2" y="-17.23" style="stroke: none; stroke-width: 0; stroke-dasharray: none; stroke-linecap: butt; stroke-linejoin: miter; stroke-miterlimit: 4; fill: #000000; fill-rule: ; opacity: 1;">n</tspan><tspan x="-25.54" y="-17.23" style="stroke: none; stroke-width: 0; stroke-dasharray: none; stroke-linecap: butt; stroke-linejoin: miter; stroke-miterlimit: 4; fill: #000000; fill-rule: ; opacity: 1;">e</tspan><tspan x="-2.67" y="-17.23" style="stroke: none; stroke-width: 0; stroke-dasharray: none; stroke-linecap: butt; stroke-linejoin: miter; stroke-miterlimit: 4; fill: #000000; fill-rule: ; opacity: 1;"> </tspan><tspan x="7.49" y="-17.23" style="stroke: none; stroke-width: 0; stroke-dasharray: none; stroke-linecap: butt; stroke-linejoin: miter; stroke-miterlimit: 4; fill: #000000; fill-rule: ; opacity: 1;">R</tspan><tspan x="37.72" y="-17.23" style="stroke: none; stroke-width: 0; stroke-dasharray: none; stroke-linecap: butt; stroke-linejoin: miter; stroke-miterlimit: 4; fill: #000000; fill-rule: ; opacity: 1;">i</tspan><tspan x="50.22" y="-17.23" style="stroke: none; stroke-width: 0; stroke-dasharray: none; stroke-linecap: butt; stroke-linejoin: miter; stroke-miterlimit: 4; fill: #000000; fill-rule: ; opacity: 1;">v</tspan><tspan x="71.9" y="-17.23" style="stroke: none; stroke-width: 0; stroke-dasharray: none; stroke-linecap: butt; stroke-linejoin: miter; stroke-miterlimit: 4; fill: #000000; fill-rule: ; opacity: 1;">e</tspan><tspan x="94.78" y="-17.23" style="stroke: none; stroke-width: 0; stroke-dasharray: none; stroke-linecap: butt; stroke-linejoin: miter; stroke-miterlimit: 4; fill: #000000; fill-rule: ; opacity: 1;">r</tspan><tspan x="-114.78" y="35.2" style="stroke: none; stroke-width: 0; stroke-dasharray: none; stroke-linecap: butt; stroke-linejoin: miter; stroke-miterlimit: 4; fill: #000000; fill-rule: ; opacity: 1;">M</tspan><tspan x="-76.44" y="35.2" style="stroke: none; stroke-width: 0; stroke-dasharray: none; stroke-linecap: butt; stroke-linejoin: miter; stroke-miterlimit: 4; fill: #000000; fill-rule: ; opacity: 1;">o</tspan><tspan x="-53.94" y="35.2" style="stroke: none; stroke-width: 0; stroke-dasharray: none; stroke-linecap: butt; stroke-linejoin: miter; stroke-miterlimit: 4; fill: #000000; fill-rule: ; opacity: 1;">r</tspan><tspan x="-33.94" y="35.2" style="stroke: none; stroke-width: 0; stroke-dasharray: none; stroke-linecap: butt; stroke-linejoin: miter; stroke-miterlimit: 4; fill: #000000; fill-rule: ; opacity: 1;">t</tspan><tspan x="-18.04" y="35.2" style="stroke: none; stroke-width: 0; stroke-dasharray: none; stroke-linecap: butt; stroke-linejoin: miter; stroke-miterlimit: 4; fill: #000000; fill-rule: ; opacity: 1;">g</tspan><tspan x="5.03" y="35.2" style="stroke: none; stroke-width: 0; stroke-dasharray: none; stroke-linecap: butt; stroke-linejoin: miter; stroke-miterlimit: 4; fill: #000000; fill-rule: ; opacity: 1;">a</tspan><tspan x="27.53" y="35.2" style="stroke: none; stroke-width: 0; stroke-dasharray: none; stroke-linecap: butt; stroke-linejoin: miter; stroke-miterlimit: 4; fill: #000000; fill-rule: ; opacity: 1;">g</tspan><tspan x="50.6" y="35.2" style="stroke: none; stroke-width: 0; stroke-dasharray: none; stroke-linecap: butt; stroke-linejoin: miter; stroke-miterlimit: 4; fill: #000000; fill-rule: ; opacity: 1;">e</tspan></text>
 </g>
<g style="stroke: none; stroke-width: 1; stroke-dasharray: none; stroke-linecap: butt; stroke-linejoin: miter; stroke-miterlimit: 10; fill: none; fill-rule: nonzero; opacity: 1;" transform="translate(10 21.470000000000027) scale(0.82 0.82)" >
  <path d="M 182.541 94.039 L 1.736 73.57 A 91.608 91.608 0 0 0 0 91.304 a 91.311 91.311 0 0 0 4.123 27.209 l 178.293 -21.531 c 0.061 -0.976 0.096 -1.958 0.125 -2.943 z" style="stroke: none; stroke-width: 1; stroke-dasharray: none; stroke-linecap: butt; stroke-linejoin: miter; stroke-miterlimit: 10; fill: #3b4b47; fill-rule: nonzero; opacity: 1;" transform="" stroke-linecap="round" />
  <path d="M 162.604 148.309 L 7.037 126.496 c 8.189 19.584 23.008 35.695 41.648 45.555 l 103.401 -12.633 a 91.397 91.397 0 0 0 10.518 -11.109 z" style="stroke: none; stroke-width: 1; stroke-dasharray: none; stroke-linecap: butt; stroke-linejoin: miter; stroke-miterlimit: 10; fill: #3a3445; fill-rule: nonzero; opacity: 1;" transform="" stroke-linecap="round" />
  <path d="M 91.305 182.61 c 23.348 0 44.639 -8.775 60.782 -23.191 L 48.686 172.052 c 12.724 6.729 27.221 10.558 42.619 10.558 z" style="stroke: none; stroke-width: 1; stroke-dasharray: none; stroke-linecap: butt; stroke-linejoin: miter; stroke-miterlimit: 10; fill: #3b4b47; fill-rule: nonzero; opacity: 1;" transform="" stroke-linecap="round" />
  <path d="M 169.59 44.305 L 23.736 29.897 A 91.106 91.106 0 0 0 3.109 67.661 L 172.791 50.13 a 90.412 90.412 0 0 0 -3.201 -5.825 z" style="stroke: none; stroke-width: 1; stroke-dasharray: none; stroke-linecap: butt; stroke-linejoin: miter; stroke-miterlimit: 10; fill: #4e623e; fill-rule: nonzero; opacity: 1;" transform="" stroke-linecap="round" />
  <path d="M 182.61 91.305 a 90.898 90.898 0 0 0 -9.818 -41.176 L 3.11 67.66 a 90.408 90.408 0 0 0 -1.373 5.91 l 180.805 20.469 c 0.026 -0.91 0.068 -1.816 0.068 -2.734 z" style="stroke: none; stroke-width: 1; stroke-dasharray: none; stroke-linecap: butt; stroke-linejoin: miter; stroke-miterlimit: 10; fill: #3a3445; fill-rule: nonzero; opacity: 1;" transform="" stroke-linecap="round" />
  <path d="M 182.416 96.983 L 4.123 118.514 a 90.794 90.794 0 0 0 2.914 7.982 l 155.566 21.813 c 11.403 -14.24 18.625 -31.963 19.813 -51.326 z" style="stroke: none; stroke-width: 1; stroke-dasharray: none; stroke-linecap: butt; stroke-linejoin: miter; stroke-miterlimit: 10; fill: #4e623e; fill-rule: nonzero; opacity: 1;" transform="" stroke-linecap="round" />
  <path d="M 91.305 0 C 64.526 0 40.438 11.531 23.737 29.896 l 145.854 14.408 C 153.619 17.762 124.539 0 91.305 0 z" style="stroke: none; stroke-width: 1; stroke-dasharray: none; stroke-linecap: butt; stroke-linejoin: miter; stroke-miterlimit: 10; fill: #3b4b47; fill-rule: nonzero; opacity: 1;" transform="" stroke-linecap="round" />
  <path d="M 85.524 150.1 v -8.064 l -7.712 2.041 l -4.001 1.061 l -8.954 2.094 l 0.403 -0.76 l -0.305 0.08 l 8.48 -16.049 l 5.724 -10.836 l 6.556 -12.412 l -13.6 3.475 l -3.059 0.781 l 13.91 -28.344 l 6.473 -13.188 l -9.762 3.158 L 89.4 56.938 l 2.25 -3.752 l 2.305 3.838 l 9.67 16.113 l -9.76 -3.158 l 6.471 13.188 l 13.91 28.344 l -3.061 -0.781 l -13.152 -3.361 l 6.037 12.16 l 5.775 11.633 l 8.221 16.473 l -9.769 -2.119 l -0.056 -0.014 l -0.057 -0.01 l -7.905 -1.498 l -7.757 -1.469 v 24.885 c 2 -0.053 4 -0.184 6 -0.41 v -16.898 l 8.017 1.498 l 22.611 4.857 c 0.015 -0.01 0.061 -0.02 0.075 -0.027 l -13.905 -28.047 l -5.723 -11.621 l 11.194 2.854 l 1.932 0.49 l 3.05 0.777 l -19.853 -40.459 l 11.584 3.746 l -18.215 -30.348 L 91.65 41.09 l -7.59 12.645 l -18.266 30.436 l 11.582 -3.746 l -19.855 40.459 l 3.818 -0.975 l 1.713 -0.439 l 10.602 -2.707 l -5.723 10.836 l -15.076 28.537 l 0.496 -0.129 l -0.182 0.354 l 22.202 -5.178 l 4.149 -1.08 v 16.389 c 2 0.334 4 0.572 6 0.732 V 150.1 z m 7 26.486 c 0 0.057 -1.954 0.086 -3.051 0.086 c -1.428 0 -1.949 -0.049 -3.949 -0.16 v -3.05 c -2 -0.146 -4 -0.357 -6 -0.666 v 9.235 c 3 0.564 6.344 0.865 9.948 0.865 c 3.292 0 7.052 -0.248 9.052 -0.723 v -8.902 c -2 0.209 -4 0.314 -6 0.363 v 2.952 z" style="stroke: none; stroke-width: 1; stroke-dasharray: none; stroke-linecap: butt; stroke-linejoin: miter; stroke-miterlimit: 10; fill: #f5f5f5; fill-rule: nonzero; opacity: 1;" transform="" stroke-linecap="round" />
  <path d="M 169.99 94.242 c 0 -43.805 -35.574 -79.441 -79.378 -79.441 S 11.538 50.438 11.538 94.242 c 0 39.785 28.985 72.828 67.985 78.555 v -6.309 c -35 -5.67 -61.729 -35.9 -61.729 -72.246 c 0 -40.371 32.677 -73.217 73.048 -73.217 s 73.132 32.846 73.132 73.217 c 0 26.219 -13.904 49.25 -34.674 62.186 l -0.002 0.041 l -0.199 -0.014 c -9.032 5.615 -18.576 9.318 -30.576 10.543 v 6.273 c 40.001 -4.07 71.467 -37.96 71.467 -79.029 z" style="stroke: none; stroke-width: 1; stroke-dasharray: none; stroke-linecap: butt; stroke-linejoin: miter; stroke-miterlimit: 10; fill: #f5f5f5; fill-rule: nonzero; opacity: 1;" transform="" stroke-linecap="round" />
  <path d="M 129.278 156.469 l -0.02 -0.041 l -0.043 0.027 l 0.063 0.014 z m -36.754 10.939 v 6.227 c 2 -0.049 4 -0.154 6 -0.363 v -6.273 c -2 0.226 -4 0.357 -6 0.409 z m -7 -0.187 c -2 -0.16 -4 -0.398 -6 -0.732 v 6.309 c 2 0.309 4 0.52 6 0.666 v -6.243 z" style="stroke: none; stroke-width: 1; stroke-dasharray: none; stroke-linecap: butt; stroke-linejoin: miter; stroke-miterlimit: 10; fill: #f5f5f5; fill-rule: nonzero; opacity: 1;" transform="" stroke-linecap="round" />
</g>
</svg>